<svg width="27" height="27" viewBox="0 0 27 27" fill="none" xmlns="http://www.w3.org/2000/svg">
<path d="M13.3737 0.181885C6.20586 0.181885 0.374405 6.01364 0.374405 13.1819C0.374405 20.3501 6.20586 26.1819 13.3737 26.1819C20.5416 26.1819 26.3731 20.3501 26.3731 13.1819C26.3731 6.01364 20.5416 0.181885 13.3737 0.181885ZM21.9685 6.17688C23.5149 8.06638 24.4514 10.473 24.4758 13.0939C24.1098 13.0164 20.4388 12.2718 16.7443 12.7365C16.4428 12.0005 16.1582 11.353 15.7684 10.5551C19.8738 8.87889 21.7344 6.49354 21.9685 6.17688ZM20.7341 4.89281C20.5344 5.17729 18.863 7.42393 14.9148 8.90389C13.0953 5.56079 11.0787 2.81444 10.7718 2.40347C14.2929 1.55464 18.0035 2.47004 20.7341 4.89281ZM8.65314 3.14987C8.94589 3.55135 10.93 6.30111 12.7698 9.57171C7.57598 10.951 3.00142 10.9312 2.50483 10.9246C3.22482 7.47892 5.54677 4.61515 8.65314 3.14987ZM2.27032 13.1988C2.27032 13.0853 2.27257 12.9723 2.27598 12.8595C2.76177 12.8695 8.14245 12.9388 13.6874 11.2793C14.0053 11.9014 14.3089 12.5329 14.5876 13.1637C10.5725 14.2946 6.9246 17.5421 5.12477 20.6233C3.35136 18.6547 2.27032 16.0508 2.27032 13.1988ZM6.55836 21.9588C7.71819 19.5877 10.8659 16.527 15.3423 14.9998C16.9012 19.0509 17.5458 22.4461 17.711 23.4203C14.1407 24.9412 9.84767 24.5239 6.55836 21.9588ZM19.5776 22.4038C19.4638 21.7283 18.8728 18.4777 17.4206 14.4867C20.9 13.9297 23.9569 14.8415 24.3368 14.9614C23.8419 18.051 22.0686 20.7193 19.5776 22.4038Z" fill="white"/>
</svg>
