<svg width="39" height="27" viewBox="0 0 39 27" fill="none" xmlns="http://www.w3.org/2000/svg">
<path d="M15.6793 12.2467C17.7772 11.1523 18.8723 9.49621 18.8723 6.91854C18.8723 1.83518 15.4022 0.596741 11.3977 0.596741H0.373734V26.1143H11.7078C15.9564 26.1143 19.9477 23.8895 19.9477 18.7053C19.9477 15.5012 18.5557 13.1323 15.6793 12.2467ZM5.51297 4.95287H10.3355C12.1894 4.95287 13.8585 5.52169 13.8585 7.86896C13.8585 10.0362 12.5588 10.9075 10.7248 10.9075H5.51297V4.95287ZM11.0085 21.7798H5.51297V14.7524H11.114C13.3769 14.7524 14.8085 15.782 14.8085 18.3957C14.8085 20.9734 13.0998 21.7798 11.0085 21.7798ZM34.6595 4.44886H25.1793V1.93598H34.6595V4.44886ZM38.3737 17.1429C38.3737 11.6779 35.4446 7.12014 30.1338 7.12014C24.9748 7.12014 21.4716 11.3539 21.4716 16.898C21.4716 22.651 24.7901 26.5967 30.1338 26.5967C34.1779 26.5967 36.797 24.6095 38.0571 20.383H33.9536C33.5116 21.9598 31.6907 22.795 30.2789 22.795C27.5543 22.795 26.1227 21.0526 26.1227 18.0933H38.3342C38.3539 17.7909 38.3737 17.4669 38.3737 17.1429ZM26.1293 14.8964C26.281 12.4699 27.7588 10.9507 29.9887 10.9507C32.3241 10.9507 33.4984 12.4483 33.6963 14.8964H26.1293Z" fill="white"/>
</svg>
