<svg width="27" height="27" viewBox="0 0 27 27" fill="none" xmlns="http://www.w3.org/2000/svg">
<path d="M13.3773 6.74128C9.68829 6.74128 6.71272 9.71751 6.71272 13.4073C6.71272 17.0972 9.68829 20.0734 13.3773 20.0734C17.0663 20.0734 20.0419 17.0972 20.0419 13.4073C20.0419 9.71751 17.0663 6.74128 13.3773 6.74128ZM13.3773 17.7412C10.9934 17.7412 9.04445 15.7976 9.04445 13.4073C9.04445 11.0171 10.9876 9.07353 13.3773 9.07353C15.767 9.07353 17.7102 11.0171 17.7102 13.4073C17.7102 15.7976 15.7612 17.7412 13.3773 17.7412ZM21.869 6.4686C21.869 7.33304 21.173 8.02344 20.3145 8.02344C19.4503 8.02344 18.76 7.32724 18.76 6.4686C18.76 5.60996 19.4561 4.91376 20.3145 4.91376C21.173 4.91376 21.869 5.60996 21.869 6.4686ZM26.2831 8.04664C26.1844 5.96386 25.7088 4.11894 24.1833 2.59891C22.6636 1.07889 20.8191 0.603154 18.7368 0.498724C16.5907 0.37689 10.1581 0.37689 8.012 0.498724C5.93548 0.597352 4.09097 1.07309 2.56548 2.59311C1.03999 4.11314 0.570166 5.95806 0.46576 8.04084C0.343953 10.1874 0.343953 16.6215 0.46576 18.7681C0.564366 20.8508 1.03999 22.6958 2.56548 24.2158C4.09097 25.7358 5.92968 26.2115 8.012 26.316C10.1581 26.4378 16.5907 26.4378 18.7368 26.316C20.8191 26.2173 22.6636 25.7416 24.1833 24.2158C25.703 22.6958 26.1786 20.8508 26.2831 18.7681C26.4049 16.6215 26.4049 10.1932 26.2831 8.04664ZM23.5105 21.0713C23.0581 22.2084 22.1822 23.0845 21.0395 23.5428C19.3284 24.2216 15.2682 24.0649 13.3773 24.0649C11.4864 24.0649 7.42036 24.2158 5.71506 23.5428C4.5782 23.0903 3.70235 22.2142 3.24412 21.0713C2.56548 19.3598 2.72209 15.2987 2.72209 13.4073C2.72209 11.516 2.57128 7.44908 3.24412 5.7434C3.69655 4.60628 4.5724 3.73023 5.71506 3.2719C7.42616 2.59311 11.4864 2.74976 13.3773 2.74976C15.2682 2.74976 19.3343 2.59891 21.0395 3.2719C22.1764 3.72443 23.0523 4.60048 23.5105 5.7434C24.1891 7.45488 24.0325 11.516 24.0325 13.4073C24.0325 15.2987 24.1891 19.3656 23.5105 21.0713Z" fill="white"/>
</svg>
